<svg xmlns="http://www.w3.org/2000/svg" width="76mm" height="76mm" viewBox="0 0 760 760"><rect width="760" height="760" fill="#FDE68A"/><rect x="0" y="0" width="760" height="70" fill="#FCD34D" opacity="0.5"/><text x="70" y="220" font-family="'Segoe Script', 'Bradley Hand', 'Comic Sans MS', cursive" font-size="56" fill="#1F2937" font-weight="normal" text-anchor="start" letter-spacing="0" style="font-style:italic">This book won&#x27;t get you</text><text x="70" y="312" font-family="'Segoe Script', 'Bradley Hand', 'Comic Sans MS', cursive" font-size="56" fill="#1F2937" font-weight="normal" text-anchor="start" letter-spacing="0" style="font-style:italic">the interview.</text><text x="70" y="404" font-family="'Segoe Script', 'Bradley Hand', 'Comic Sans MS', cursive" font-size="56" fill="#1F2937" font-weight="normal" text-anchor="start" letter-spacing="0" style="font-style:italic">An email to the right</text><text x="70" y="496" font-family="'Segoe Script', 'Bradley Hand', 'Comic Sans MS', cursive" font-size="56" fill="#1F2937" font-weight="normal" text-anchor="start" letter-spacing="0" style="font-style:italic">recruiter will.</text><text x="70" y="638" font-family="'Segoe Script', 'Bradley Hand', 'Comic Sans MS', cursive" font-size="52" fill="#1F2937" font-weight="bold" text-anchor="start" letter-spacing="0" style="">candidai.tech  →</text><rect x="534.84" y="534.84" width="33.87" height="4.84" fill="#1F2937"/><rect x="573.55" y="534.84" width="9.68" height="4.84" fill="#1F2937"/><rect x="592.90" y="534.84" width="14.52" height="4.84" fill="#1F2937"/><rect x="612.26" y="534.84" width="4.84" height="4.84" fill="#1F2937"/><rect x="641.29" y="534.84" width="33.87" height="4.84" fill="#1F2937"/><rect x="534.84" y="539.68" width="4.84" height="4.84" fill="#1F2937"/><rect x="563.87" y="539.68" width="4.84" height="4.84" fill="#1F2937"/><rect x="578.39" y="539.68" width="14.52" height="4.84" fill="#1F2937"/><rect x="597.74" y="539.68" width="14.52" height="4.84" fill="#1F2937"/><rect x="617.10" y="539.68" width="14.52" height="4.84" fill="#1F2937"/><rect x="641.29" y="539.68" width="4.84" height="4.84" fill="#1F2937"/><rect x="670.32" y="539.68" width="4.84" height="4.84" fill="#1F2937"/><rect x="534.84" y="544.52" width="4.84" height="4.84" fill="#1F2937"/><rect x="544.52" y="544.52" width="14.52" height="4.84" fill="#1F2937"/><rect x="563.87" y="544.52" width="4.84" height="4.84" fill="#1F2937"/><rect x="583.23" y="544.52" width="4.84" height="4.84" fill="#1F2937"/><rect x="592.90" y="544.52" width="4.84" height="4.84" fill="#1F2937"/><rect x="602.58" y="544.52" width="4.84" height="4.84" fill="#1F2937"/><rect x="617.10" y="544.52" width="4.84" height="4.84" fill="#1F2937"/><rect x="626.77" y="544.52" width="9.68" height="4.84" fill="#1F2937"/><rect x="641.29" y="544.52" width="4.84" height="4.84" fill="#1F2937"/><rect x="650.97" y="544.52" width="14.52" height="4.84" fill="#1F2937"/><rect x="670.32" y="544.52" width="4.84" height="4.84" fill="#1F2937"/><rect x="534.84" y="549.35" width="4.84" height="4.84" fill="#1F2937"/><rect x="544.52" y="549.35" width="14.52" height="4.84" fill="#1F2937"/><rect x="563.87" y="549.35" width="4.84" height="4.84" fill="#1F2937"/><rect x="573.55" y="549.35" width="9.68" height="4.84" fill="#1F2937"/><rect x="626.77" y="549.35" width="4.84" height="4.84" fill="#1F2937"/><rect x="641.29" y="549.35" width="4.84" height="4.84" fill="#1F2937"/><rect x="650.97" y="549.35" width="14.52" height="4.84" fill="#1F2937"/><rect x="670.32" y="549.35" width="4.84" height="4.84" fill="#1F2937"/><rect x="534.84" y="554.19" width="4.84" height="4.84" fill="#1F2937"/><rect x="544.52" y="554.19" width="14.52" height="4.84" fill="#1F2937"/><rect x="563.87" y="554.19" width="4.84" height="4.84" fill="#1F2937"/><rect x="573.55" y="554.19" width="19.35" height="4.84" fill="#1F2937"/><rect x="617.10" y="554.19" width="9.68" height="4.84" fill="#1F2937"/><rect x="631.61" y="554.19" width="4.84" height="4.84" fill="#1F2937"/><rect x="641.29" y="554.19" width="4.84" height="4.84" fill="#1F2937"/><rect x="650.97" y="554.19" width="14.52" height="4.84" fill="#1F2937"/><rect x="670.32" y="554.19" width="4.84" height="4.84" fill="#1F2937"/><rect x="534.84" y="559.03" width="4.84" height="4.84" fill="#1F2937"/><rect x="563.87" y="559.03" width="4.84" height="4.84" fill="#1F2937"/><rect x="573.55" y="559.03" width="9.68" height="4.84" fill="#1F2937"/><rect x="588.06" y="559.03" width="9.68" height="4.84" fill="#1F2937"/><rect x="612.26" y="559.03" width="9.68" height="4.84" fill="#1F2937"/><rect x="626.77" y="559.03" width="9.68" height="4.84" fill="#1F2937"/><rect x="641.29" y="559.03" width="4.84" height="4.84" fill="#1F2937"/><rect x="670.32" y="559.03" width="4.84" height="4.84" fill="#1F2937"/><rect x="534.84" y="563.87" width="33.87" height="4.84" fill="#1F2937"/><rect x="573.55" y="563.87" width="4.84" height="4.84" fill="#1F2937"/><rect x="583.23" y="563.87" width="4.84" height="4.84" fill="#1F2937"/><rect x="592.90" y="563.87" width="4.84" height="4.84" fill="#1F2937"/><rect x="602.58" y="563.87" width="4.84" height="4.84" fill="#1F2937"/><rect x="612.26" y="563.87" width="4.84" height="4.84" fill="#1F2937"/><rect x="621.94" y="563.87" width="4.84" height="4.84" fill="#1F2937"/><rect x="631.61" y="563.87" width="4.84" height="4.84" fill="#1F2937"/><rect x="641.29" y="563.87" width="33.87" height="4.84" fill="#1F2937"/><rect x="573.55" y="568.71" width="9.68" height="4.84" fill="#1F2937"/><rect x="597.74" y="568.71" width="4.84" height="4.84" fill="#1F2937"/><rect x="607.42" y="568.71" width="19.35" height="4.84" fill="#1F2937"/><rect x="534.84" y="573.55" width="4.84" height="4.84" fill="#1F2937"/><rect x="554.19" y="573.55" width="4.84" height="4.84" fill="#1F2937"/><rect x="563.87" y="573.55" width="29.03" height="4.84" fill="#1F2937"/><rect x="597.74" y="573.55" width="4.84" height="4.84" fill="#1F2937"/><rect x="631.61" y="573.55" width="29.03" height="4.84" fill="#1F2937"/><rect x="670.32" y="573.55" width="4.84" height="4.84" fill="#1F2937"/><rect x="534.84" y="578.39" width="4.84" height="4.84" fill="#1F2937"/><rect x="544.52" y="578.39" width="14.52" height="4.84" fill="#1F2937"/><rect x="573.55" y="578.39" width="4.84" height="4.84" fill="#1F2937"/><rect x="597.74" y="578.39" width="9.68" height="4.84" fill="#1F2937"/><rect x="612.26" y="578.39" width="4.84" height="4.84" fill="#1F2937"/><rect x="621.94" y="578.39" width="4.84" height="4.84" fill="#1F2937"/><rect x="641.29" y="578.39" width="33.87" height="4.84" fill="#1F2937"/><rect x="539.68" y="583.23" width="19.35" height="4.84" fill="#1F2937"/><rect x="563.87" y="583.23" width="24.19" height="4.84" fill="#1F2937"/><rect x="592.90" y="583.23" width="4.84" height="4.84" fill="#1F2937"/><rect x="612.26" y="583.23" width="9.68" height="4.84" fill="#1F2937"/><rect x="631.61" y="583.23" width="9.68" height="4.84" fill="#1F2937"/><rect x="646.13" y="583.23" width="4.84" height="4.84" fill="#1F2937"/><rect x="670.32" y="583.23" width="4.84" height="4.84" fill="#1F2937"/><rect x="534.84" y="588.06" width="29.03" height="4.84" fill="#1F2937"/><rect x="568.71" y="588.06" width="4.84" height="4.84" fill="#1F2937"/><rect x="578.39" y="588.06" width="4.84" height="4.84" fill="#1F2937"/><rect x="592.90" y="588.06" width="4.84" height="4.84" fill="#1F2937"/><rect x="602.58" y="588.06" width="4.84" height="4.84" fill="#1F2937"/><rect x="617.10" y="588.06" width="14.52" height="4.84" fill="#1F2937"/><rect x="641.29" y="588.06" width="4.84" height="4.84" fill="#1F2937"/><rect x="655.81" y="588.06" width="4.84" height="4.84" fill="#1F2937"/><rect x="665.48" y="588.06" width="9.68" height="4.84" fill="#1F2937"/><rect x="544.52" y="592.90" width="4.84" height="4.84" fill="#1F2937"/><rect x="554.19" y="592.90" width="4.84" height="4.84" fill="#1F2937"/><rect x="563.87" y="592.90" width="14.52" height="4.84" fill="#1F2937"/><rect x="592.90" y="592.90" width="24.19" height="4.84" fill="#1F2937"/><rect x="626.77" y="592.90" width="14.52" height="4.84" fill="#1F2937"/><rect x="665.48" y="592.90" width="4.84" height="4.84" fill="#1F2937"/><rect x="539.68" y="597.74" width="19.35" height="4.84" fill="#1F2937"/><rect x="578.39" y="597.74" width="4.84" height="4.84" fill="#1F2937"/><rect x="617.10" y="597.74" width="9.68" height="4.84" fill="#1F2937"/><rect x="641.29" y="597.74" width="33.87" height="4.84" fill="#1F2937"/><rect x="534.84" y="602.58" width="33.87" height="4.84" fill="#1F2937"/><rect x="573.55" y="602.58" width="4.84" height="4.84" fill="#1F2937"/><rect x="588.06" y="602.58" width="4.84" height="4.84" fill="#1F2937"/><rect x="597.74" y="602.58" width="14.52" height="4.84" fill="#1F2937"/><rect x="617.10" y="602.58" width="9.68" height="4.84" fill="#1F2937"/><rect x="631.61" y="602.58" width="4.84" height="4.84" fill="#1F2937"/><rect x="641.29" y="602.58" width="24.19" height="4.84" fill="#1F2937"/><rect x="670.32" y="602.58" width="4.84" height="4.84" fill="#1F2937"/><rect x="534.84" y="607.42" width="14.52" height="4.84" fill="#1F2937"/><rect x="554.19" y="607.42" width="9.68" height="4.84" fill="#1F2937"/><rect x="573.55" y="607.42" width="4.84" height="4.84" fill="#1F2937"/><rect x="583.23" y="607.42" width="19.35" height="4.84" fill="#1F2937"/><rect x="607.42" y="607.42" width="19.35" height="4.84" fill="#1F2937"/><rect x="631.61" y="607.42" width="14.52" height="4.84" fill="#1F2937"/><rect x="650.97" y="607.42" width="4.84" height="4.84" fill="#1F2937"/><rect x="665.48" y="607.42" width="9.68" height="4.84" fill="#1F2937"/><rect x="534.84" y="612.26" width="4.84" height="4.84" fill="#1F2937"/><rect x="544.52" y="612.26" width="33.87" height="4.84" fill="#1F2937"/><rect x="583.23" y="612.26" width="4.84" height="4.84" fill="#1F2937"/><rect x="592.90" y="612.26" width="9.68" height="4.84" fill="#1F2937"/><rect x="626.77" y="612.26" width="14.52" height="4.84" fill="#1F2937"/><rect x="665.48" y="612.26" width="4.84" height="4.84" fill="#1F2937"/><rect x="534.84" y="617.10" width="14.52" height="4.84" fill="#1F2937"/><rect x="559.03" y="617.10" width="4.84" height="4.84" fill="#1F2937"/><rect x="568.71" y="617.10" width="4.84" height="4.84" fill="#1F2937"/><rect x="578.39" y="617.10" width="29.03" height="4.84" fill="#1F2937"/><rect x="612.26" y="617.10" width="4.84" height="4.84" fill="#1F2937"/><rect x="621.94" y="617.10" width="4.84" height="4.84" fill="#1F2937"/><rect x="641.29" y="617.10" width="19.35" height="4.84" fill="#1F2937"/><rect x="665.48" y="617.10" width="9.68" height="4.84" fill="#1F2937"/><rect x="549.35" y="621.94" width="19.35" height="4.84" fill="#1F2937"/><rect x="588.06" y="621.94" width="4.84" height="4.84" fill="#1F2937"/><rect x="612.26" y="621.94" width="4.84" height="4.84" fill="#1F2937"/><rect x="636.45" y="621.94" width="9.68" height="4.84" fill="#1F2937"/><rect x="660.65" y="621.94" width="4.84" height="4.84" fill="#1F2937"/><rect x="670.32" y="621.94" width="4.84" height="4.84" fill="#1F2937"/><rect x="544.52" y="626.77" width="9.68" height="4.84" fill="#1F2937"/><rect x="568.71" y="626.77" width="4.84" height="4.84" fill="#1F2937"/><rect x="578.39" y="626.77" width="4.84" height="4.84" fill="#1F2937"/><rect x="588.06" y="626.77" width="4.84" height="4.84" fill="#1F2937"/><rect x="602.58" y="626.77" width="4.84" height="4.84" fill="#1F2937"/><rect x="617.10" y="626.77" width="4.84" height="4.84" fill="#1F2937"/><rect x="631.61" y="626.77" width="4.84" height="4.84" fill="#1F2937"/><rect x="641.29" y="626.77" width="9.68" height="4.84" fill="#1F2937"/><rect x="665.48" y="626.77" width="9.68" height="4.84" fill="#1F2937"/><rect x="534.84" y="631.61" width="9.68" height="4.84" fill="#1F2937"/><rect x="554.19" y="631.61" width="19.35" height="4.84" fill="#1F2937"/><rect x="583.23" y="631.61" width="9.68" height="4.84" fill="#1F2937"/><rect x="597.74" y="631.61" width="14.52" height="4.84" fill="#1F2937"/><rect x="617.10" y="631.61" width="43.55" height="4.84" fill="#1F2937"/><rect x="670.32" y="631.61" width="4.84" height="4.84" fill="#1F2937"/><rect x="573.55" y="636.45" width="14.52" height="4.84" fill="#1F2937"/><rect x="617.10" y="636.45" width="9.68" height="4.84" fill="#1F2937"/><rect x="631.61" y="636.45" width="4.84" height="4.84" fill="#1F2937"/><rect x="650.97" y="636.45" width="4.84" height="4.84" fill="#1F2937"/><rect x="670.32" y="636.45" width="4.84" height="4.84" fill="#1F2937"/><rect x="534.84" y="641.29" width="33.87" height="4.84" fill="#1F2937"/><rect x="573.55" y="641.29" width="4.84" height="4.84" fill="#1F2937"/><rect x="597.74" y="641.29" width="14.52" height="4.84" fill="#1F2937"/><rect x="617.10" y="641.29" width="19.35" height="4.84" fill="#1F2937"/><rect x="641.29" y="641.29" width="4.84" height="4.84" fill="#1F2937"/><rect x="650.97" y="641.29" width="14.52" height="4.84" fill="#1F2937"/><rect x="670.32" y="641.29" width="4.84" height="4.84" fill="#1F2937"/><rect x="534.84" y="646.13" width="4.84" height="4.84" fill="#1F2937"/><rect x="563.87" y="646.13" width="4.84" height="4.84" fill="#1F2937"/><rect x="578.39" y="646.13" width="9.68" height="4.84" fill="#1F2937"/><rect x="592.90" y="646.13" width="9.68" height="4.84" fill="#1F2937"/><rect x="607.42" y="646.13" width="29.03" height="4.84" fill="#1F2937"/><rect x="650.97" y="646.13" width="4.84" height="4.84" fill="#1F2937"/><rect x="534.84" y="650.97" width="4.84" height="4.84" fill="#1F2937"/><rect x="544.52" y="650.97" width="14.52" height="4.84" fill="#1F2937"/><rect x="563.87" y="650.97" width="4.84" height="4.84" fill="#1F2937"/><rect x="573.55" y="650.97" width="4.84" height="4.84" fill="#1F2937"/><rect x="583.23" y="650.97" width="9.68" height="4.84" fill="#1F2937"/><rect x="597.74" y="650.97" width="4.84" height="4.84" fill="#1F2937"/><rect x="612.26" y="650.97" width="48.39" height="4.84" fill="#1F2937"/><rect x="665.48" y="650.97" width="9.68" height="4.84" fill="#1F2937"/><rect x="534.84" y="655.81" width="4.84" height="4.84" fill="#1F2937"/><rect x="544.52" y="655.81" width="14.52" height="4.84" fill="#1F2937"/><rect x="563.87" y="655.81" width="4.84" height="4.84" fill="#1F2937"/><rect x="583.23" y="655.81" width="9.68" height="4.84" fill="#1F2937"/><rect x="602.58" y="655.81" width="9.68" height="4.84" fill="#1F2937"/><rect x="626.77" y="655.81" width="4.84" height="4.84" fill="#1F2937"/><rect x="636.45" y="655.81" width="4.84" height="4.84" fill="#1F2937"/><rect x="665.48" y="655.81" width="4.84" height="4.84" fill="#1F2937"/><rect x="534.84" y="660.65" width="4.84" height="4.84" fill="#1F2937"/><rect x="544.52" y="660.65" width="14.52" height="4.84" fill="#1F2937"/><rect x="563.87" y="660.65" width="4.84" height="4.84" fill="#1F2937"/><rect x="578.39" y="660.65" width="9.68" height="4.84" fill="#1F2937"/><rect x="592.90" y="660.65" width="29.03" height="4.84" fill="#1F2937"/><rect x="626.77" y="660.65" width="14.52" height="4.84" fill="#1F2937"/><rect x="655.81" y="660.65" width="19.35" height="4.84" fill="#1F2937"/><rect x="534.84" y="665.48" width="4.84" height="4.84" fill="#1F2937"/><rect x="563.87" y="665.48" width="4.84" height="4.84" fill="#1F2937"/><rect x="607.42" y="665.48" width="14.52" height="4.84" fill="#1F2937"/><rect x="631.61" y="665.48" width="9.68" height="4.84" fill="#1F2937"/><rect x="650.97" y="665.48" width="9.68" height="4.84" fill="#1F2937"/><rect x="665.48" y="665.48" width="9.68" height="4.84" fill="#1F2937"/><rect x="534.84" y="670.32" width="33.87" height="4.84" fill="#1F2937"/><rect x="573.55" y="670.32" width="9.68" height="4.84" fill="#1F2937"/><rect x="612.26" y="670.32" width="29.03" height="4.84" fill="#1F2937"/><rect x="650.97" y="670.32" width="9.68" height="4.84" fill="#1F2937"/><rect x="665.48" y="670.32" width="4.84" height="4.84" fill="#1F2937"/></svg>