<svg xmlns="http://www.w3.org/2000/svg" width="106mm" height="40mm" viewBox="0 0 1060 400"><rect x="0" y="0" width="1060" height="400" rx="46" fill="#FFFFFF"/><rect x="14" y="14" width="1032" height="372" rx="36" fill="#000000"/><rect x="65.0" y="62" width="200" height="200" fill="#FFFFFF" rx="8.0"/><rect x="71.45" y="68.45" width="45.16" height="6.45" fill="#000000"/><rect x="123.06" y="68.45" width="12.90" height="6.45" fill="#000000"/><rect x="148.87" y="68.45" width="19.35" height="6.45" fill="#000000"/><rect x="174.68" y="68.45" width="6.45" height="6.45" fill="#000000"/><rect x="213.39" y="68.45" width="45.16" height="6.45" fill="#000000"/><rect x="71.45" y="74.90" width="6.45" height="6.45" fill="#000000"/><rect x="110.16" y="74.90" width="6.45" height="6.45" fill="#000000"/><rect x="129.52" y="74.90" width="19.35" height="6.45" fill="#000000"/><rect x="155.32" y="74.90" width="19.35" height="6.45" fill="#000000"/><rect x="181.13" y="74.90" width="19.35" height="6.45" fill="#000000"/><rect x="213.39" y="74.90" width="6.45" height="6.45" fill="#000000"/><rect x="252.10" y="74.90" width="6.45" height="6.45" fill="#000000"/><rect x="71.45" y="81.35" width="6.45" height="6.45" fill="#000000"/><rect x="84.35" y="81.35" width="19.35" height="6.45" fill="#000000"/><rect x="110.16" y="81.35" width="6.45" height="6.45" fill="#000000"/><rect x="135.97" y="81.35" width="6.45" height="6.45" fill="#000000"/><rect x="148.87" y="81.35" width="6.45" height="6.45" fill="#000000"/><rect x="161.77" y="81.35" width="6.45" height="6.45" fill="#000000"/><rect x="181.13" y="81.35" width="6.45" height="6.45" fill="#000000"/><rect x="194.03" y="81.35" width="12.90" height="6.45" fill="#000000"/><rect x="213.39" y="81.35" width="6.45" height="6.45" fill="#000000"/><rect x="226.29" y="81.35" width="19.35" height="6.45" fill="#000000"/><rect x="252.10" y="81.35" width="6.45" height="6.45" fill="#000000"/><rect x="71.45" y="87.81" width="6.45" height="6.45" fill="#000000"/><rect x="84.35" y="87.81" width="19.35" height="6.45" fill="#000000"/><rect x="110.16" y="87.81" width="6.45" height="6.45" fill="#000000"/><rect x="123.06" y="87.81" width="12.90" height="6.45" fill="#000000"/><rect x="194.03" y="87.81" width="6.45" height="6.45" fill="#000000"/><rect x="213.39" y="87.81" width="6.45" height="6.45" fill="#000000"/><rect x="226.29" y="87.81" width="19.35" height="6.45" fill="#000000"/><rect x="252.10" y="87.81" width="6.45" height="6.45" fill="#000000"/><rect x="71.45" y="94.26" width="6.45" height="6.45" fill="#000000"/><rect x="84.35" y="94.26" width="19.35" height="6.45" fill="#000000"/><rect x="110.16" y="94.26" width="6.45" height="6.45" fill="#000000"/><rect x="123.06" y="94.26" width="25.81" height="6.45" fill="#000000"/><rect x="181.13" y="94.26" width="12.90" height="6.45" fill="#000000"/><rect x="200.48" y="94.26" width="6.45" height="6.45" fill="#000000"/><rect x="213.39" y="94.26" width="6.45" height="6.45" fill="#000000"/><rect x="226.29" y="94.26" width="19.35" height="6.45" fill="#000000"/><rect x="252.10" y="94.26" width="6.45" height="6.45" fill="#000000"/><rect x="71.45" y="100.71" width="6.45" height="6.45" fill="#000000"/><rect x="110.16" y="100.71" width="6.45" height="6.45" fill="#000000"/><rect x="123.06" y="100.71" width="12.90" height="6.45" fill="#000000"/><rect x="142.42" y="100.71" width="12.90" height="6.45" fill="#000000"/><rect x="174.68" y="100.71" width="12.90" height="6.45" fill="#000000"/><rect x="194.03" y="100.71" width="12.90" height="6.45" fill="#000000"/><rect x="213.39" y="100.71" width="6.45" height="6.45" fill="#000000"/><rect x="252.10" y="100.71" width="6.45" height="6.45" fill="#000000"/><rect x="71.45" y="107.16" width="45.16" height="6.45" fill="#000000"/><rect x="123.06" y="107.16" width="6.45" height="6.45" fill="#000000"/><rect x="135.97" y="107.16" width="6.45" height="6.45" fill="#000000"/><rect x="148.87" y="107.16" width="6.45" height="6.45" fill="#000000"/><rect x="161.77" y="107.16" width="6.45" height="6.45" fill="#000000"/><rect x="174.68" y="107.16" width="6.45" height="6.45" fill="#000000"/><rect x="187.58" y="107.16" width="6.45" height="6.45" fill="#000000"/><rect x="200.48" y="107.16" width="6.45" height="6.45" fill="#000000"/><rect x="213.39" y="107.16" width="45.16" height="6.45" fill="#000000"/><rect x="123.06" y="113.61" width="12.90" height="6.45" fill="#000000"/><rect x="155.32" y="113.61" width="6.45" height="6.45" fill="#000000"/><rect x="168.23" y="113.61" width="25.81" height="6.45" fill="#000000"/><rect x="71.45" y="120.06" width="6.45" height="6.45" fill="#000000"/><rect x="97.26" y="120.06" width="6.45" height="6.45" fill="#000000"/><rect x="110.16" y="120.06" width="38.71" height="6.45" fill="#000000"/><rect x="155.32" y="120.06" width="6.45" height="6.45" fill="#000000"/><rect x="200.48" y="120.06" width="38.71" height="6.45" fill="#000000"/><rect x="252.10" y="120.06" width="6.45" height="6.45" fill="#000000"/><rect x="71.45" y="126.52" width="6.45" height="6.45" fill="#000000"/><rect x="84.35" y="126.52" width="19.35" height="6.45" fill="#000000"/><rect x="123.06" y="126.52" width="6.45" height="6.45" fill="#000000"/><rect x="155.32" y="126.52" width="12.90" height="6.45" fill="#000000"/><rect x="174.68" y="126.52" width="6.45" height="6.45" fill="#000000"/><rect x="187.58" y="126.52" width="6.45" height="6.45" fill="#000000"/><rect x="213.39" y="126.52" width="45.16" height="6.45" fill="#000000"/><rect x="77.90" y="132.97" width="25.81" height="6.45" fill="#000000"/><rect x="110.16" y="132.97" width="32.26" height="6.45" fill="#000000"/><rect x="148.87" y="132.97" width="6.45" height="6.45" fill="#000000"/><rect x="174.68" y="132.97" width="12.90" height="6.45" fill="#000000"/><rect x="200.48" y="132.97" width="12.90" height="6.45" fill="#000000"/><rect x="219.84" y="132.97" width="6.45" height="6.45" fill="#000000"/><rect x="252.10" y="132.97" width="6.45" height="6.45" fill="#000000"/><rect x="71.45" y="139.42" width="38.71" height="6.45" fill="#000000"/><rect x="116.61" y="139.42" width="6.45" height="6.45" fill="#000000"/><rect x="129.52" y="139.42" width="6.45" height="6.45" fill="#000000"/><rect x="148.87" y="139.42" width="6.45" height="6.45" fill="#000000"/><rect x="161.77" y="139.42" width="6.45" height="6.45" fill="#000000"/><rect x="181.13" y="139.42" width="19.35" height="6.45" fill="#000000"/><rect x="213.39" y="139.42" width="6.45" height="6.45" fill="#000000"/><rect x="232.74" y="139.42" width="6.45" height="6.45" fill="#000000"/><rect x="245.65" y="139.42" width="12.90" height="6.45" fill="#000000"/><rect x="84.35" y="145.87" width="6.45" height="6.45" fill="#000000"/><rect x="97.26" y="145.87" width="6.45" height="6.45" fill="#000000"/><rect x="110.16" y="145.87" width="19.35" height="6.45" fill="#000000"/><rect x="148.87" y="145.87" width="32.26" height="6.45" fill="#000000"/><rect x="194.03" y="145.87" width="19.35" height="6.45" fill="#000000"/><rect x="245.65" y="145.87" width="6.45" height="6.45" fill="#000000"/><rect x="77.90" y="152.32" width="25.81" height="6.45" fill="#000000"/><rect x="129.52" y="152.32" width="6.45" height="6.45" fill="#000000"/><rect x="181.13" y="152.32" width="12.90" height="6.45" fill="#000000"/><rect x="213.39" y="152.32" width="45.16" height="6.45" fill="#000000"/><rect x="71.45" y="158.77" width="45.16" height="6.45" fill="#000000"/><rect x="123.06" y="158.77" width="6.45" height="6.45" fill="#000000"/><rect x="142.42" y="158.77" width="6.45" height="6.45" fill="#000000"/><rect x="155.32" y="158.77" width="19.35" height="6.45" fill="#000000"/><rect x="181.13" y="158.77" width="12.90" height="6.45" fill="#000000"/><rect x="200.48" y="158.77" width="6.45" height="6.45" fill="#000000"/><rect x="213.39" y="158.77" width="32.26" height="6.45" fill="#000000"/><rect x="252.10" y="158.77" width="6.45" height="6.45" fill="#000000"/><rect x="71.45" y="165.23" width="19.35" height="6.45" fill="#000000"/><rect x="97.26" y="165.23" width="12.90" height="6.45" fill="#000000"/><rect x="123.06" y="165.23" width="6.45" height="6.45" fill="#000000"/><rect x="135.97" y="165.23" width="25.81" height="6.45" fill="#000000"/><rect x="168.23" y="165.23" width="25.81" height="6.45" fill="#000000"/><rect x="200.48" y="165.23" width="19.35" height="6.45" fill="#000000"/><rect x="226.29" y="165.23" width="6.45" height="6.45" fill="#000000"/><rect x="245.65" y="165.23" width="12.90" height="6.45" fill="#000000"/><rect x="71.45" y="171.68" width="6.45" height="6.45" fill="#000000"/><rect x="84.35" y="171.68" width="45.16" height="6.45" fill="#000000"/><rect x="135.97" y="171.68" width="6.45" height="6.45" fill="#000000"/><rect x="148.87" y="171.68" width="12.90" height="6.45" fill="#000000"/><rect x="194.03" y="171.68" width="19.35" height="6.45" fill="#000000"/><rect x="245.65" y="171.68" width="6.45" height="6.45" fill="#000000"/><rect x="71.45" y="178.13" width="19.35" height="6.45" fill="#000000"/><rect x="103.71" y="178.13" width="6.45" height="6.45" fill="#000000"/><rect x="116.61" y="178.13" width="6.45" height="6.45" fill="#000000"/><rect x="129.52" y="178.13" width="38.71" height="6.45" fill="#000000"/><rect x="174.68" y="178.13" width="6.45" height="6.45" fill="#000000"/><rect x="187.58" y="178.13" width="6.45" height="6.45" fill="#000000"/><rect x="213.39" y="178.13" width="25.81" height="6.45" fill="#000000"/><rect x="245.65" y="178.13" width="12.90" height="6.45" fill="#000000"/><rect x="90.81" y="184.58" width="25.81" height="6.45" fill="#000000"/><rect x="142.42" y="184.58" width="6.45" height="6.45" fill="#000000"/><rect x="174.68" y="184.58" width="6.45" height="6.45" fill="#000000"/><rect x="206.94" y="184.58" width="12.90" height="6.45" fill="#000000"/><rect x="239.19" y="184.58" width="6.45" height="6.45" fill="#000000"/><rect x="252.10" y="184.58" width="6.45" height="6.45" fill="#000000"/><rect x="84.35" y="191.03" width="12.90" height="6.45" fill="#000000"/><rect x="116.61" y="191.03" width="6.45" height="6.45" fill="#000000"/><rect x="129.52" y="191.03" width="6.45" height="6.45" fill="#000000"/><rect x="142.42" y="191.03" width="6.45" height="6.45" fill="#000000"/><rect x="161.77" y="191.03" width="6.45" height="6.45" fill="#000000"/><rect x="181.13" y="191.03" width="6.45" height="6.45" fill="#000000"/><rect x="200.48" y="191.03" width="6.45" height="6.45" fill="#000000"/><rect x="213.39" y="191.03" width="12.90" height="6.45" fill="#000000"/><rect x="245.65" y="191.03" width="12.90" height="6.45" fill="#000000"/><rect x="71.45" y="197.48" width="12.90" height="6.45" fill="#000000"/><rect x="97.26" y="197.48" width="25.81" height="6.45" fill="#000000"/><rect x="135.97" y="197.48" width="12.90" height="6.45" fill="#000000"/><rect x="155.32" y="197.48" width="19.35" height="6.45" fill="#000000"/><rect x="181.13" y="197.48" width="58.06" height="6.45" fill="#000000"/><rect x="252.10" y="197.48" width="6.45" height="6.45" fill="#000000"/><rect x="123.06" y="203.94" width="19.35" height="6.45" fill="#000000"/><rect x="181.13" y="203.94" width="12.90" height="6.45" fill="#000000"/><rect x="200.48" y="203.94" width="6.45" height="6.45" fill="#000000"/><rect x="226.29" y="203.94" width="6.45" height="6.45" fill="#000000"/><rect x="252.10" y="203.94" width="6.45" height="6.45" fill="#000000"/><rect x="71.45" y="210.39" width="45.16" height="6.45" fill="#000000"/><rect x="123.06" y="210.39" width="6.45" height="6.45" fill="#000000"/><rect x="155.32" y="210.39" width="19.35" height="6.45" fill="#000000"/><rect x="181.13" y="210.39" width="25.81" height="6.45" fill="#000000"/><rect x="213.39" y="210.39" width="6.45" height="6.45" fill="#000000"/><rect x="226.29" y="210.39" width="19.35" height="6.45" fill="#000000"/><rect x="252.10" y="210.39" width="6.45" height="6.45" fill="#000000"/><rect x="71.45" y="216.84" width="6.45" height="6.45" fill="#000000"/><rect x="110.16" y="216.84" width="6.45" height="6.45" fill="#000000"/><rect x="129.52" y="216.84" width="12.90" height="6.45" fill="#000000"/><rect x="148.87" y="216.84" width="12.90" height="6.45" fill="#000000"/><rect x="168.23" y="216.84" width="38.71" height="6.45" fill="#000000"/><rect x="226.29" y="216.84" width="6.45" height="6.45" fill="#000000"/><rect x="71.45" y="223.29" width="6.45" height="6.45" fill="#000000"/><rect x="84.35" y="223.29" width="19.35" height="6.45" fill="#000000"/><rect x="110.16" y="223.29" width="6.45" height="6.45" fill="#000000"/><rect x="123.06" y="223.29" width="6.45" height="6.45" fill="#000000"/><rect x="135.97" y="223.29" width="12.90" height="6.45" fill="#000000"/><rect x="155.32" y="223.29" width="6.45" height="6.45" fill="#000000"/><rect x="174.68" y="223.29" width="64.52" height="6.45" fill="#000000"/><rect x="245.65" y="223.29" width="12.90" height="6.45" fill="#000000"/><rect x="71.45" y="229.74" width="6.45" height="6.45" fill="#000000"/><rect x="84.35" y="229.74" width="19.35" height="6.45" fill="#000000"/><rect x="110.16" y="229.74" width="6.45" height="6.45" fill="#000000"/><rect x="135.97" y="229.74" width="12.90" height="6.45" fill="#000000"/><rect x="161.77" y="229.74" width="12.90" height="6.45" fill="#000000"/><rect x="194.03" y="229.74" width="6.45" height="6.45" fill="#000000"/><rect x="206.94" y="229.74" width="6.45" height="6.45" fill="#000000"/><rect x="245.65" y="229.74" width="6.45" height="6.45" fill="#000000"/><rect x="71.45" y="236.19" width="6.45" height="6.45" fill="#000000"/><rect x="84.35" y="236.19" width="19.35" height="6.45" fill="#000000"/><rect x="110.16" y="236.19" width="6.45" height="6.45" fill="#000000"/><rect x="129.52" y="236.19" width="12.90" height="6.45" fill="#000000"/><rect x="148.87" y="236.19" width="38.71" height="6.45" fill="#000000"/><rect x="194.03" y="236.19" width="19.35" height="6.45" fill="#000000"/><rect x="232.74" y="236.19" width="25.81" height="6.45" fill="#000000"/><rect x="71.45" y="242.65" width="6.45" height="6.45" fill="#000000"/><rect x="110.16" y="242.65" width="6.45" height="6.45" fill="#000000"/><rect x="168.23" y="242.65" width="19.35" height="6.45" fill="#000000"/><rect x="200.48" y="242.65" width="12.90" height="6.45" fill="#000000"/><rect x="226.29" y="242.65" width="12.90" height="6.45" fill="#000000"/><rect x="245.65" y="242.65" width="12.90" height="6.45" fill="#000000"/><rect x="71.45" y="249.10" width="45.16" height="6.45" fill="#000000"/><rect x="123.06" y="249.10" width="12.90" height="6.45" fill="#000000"/><rect x="174.68" y="249.10" width="38.71" height="6.45" fill="#000000"/><rect x="226.29" y="249.10" width="12.90" height="6.45" fill="#000000"/><rect x="245.65" y="249.10" width="6.45" height="6.45" fill="#000000"/><text x="165.0" y="308" font-family="Arial, 'Helvetica Neue', sans-serif" font-size="33" fill="#A78BFA" font-weight="bold" text-anchor="middle" letter-spacing="1" style="">candidai.tech</text><rect x="300" y="54" width="13" height="292" fill="#8B5CF6"/><text x="352" y="159.2" font-family="Arial, 'Helvetica Neue', sans-serif" font-size="51" fill="#FFFFFF" font-weight="900" text-anchor="start" letter-spacing="-1" style="">THIS TOILET HANDLES</text><text x="352" y="218.35999999999999" font-family="Arial, 'Helvetica Neue', sans-serif" font-size="51" fill="#FFFFFF" font-weight="900" text-anchor="start" letter-spacing="-1" style="">YOUR SHIT BETTER THAN</text><text x="352" y="277.52" font-family="Arial, 'Helvetica Neue', sans-serif" font-size="51" fill="#E879F9" font-weight="900" text-anchor="start" letter-spacing="-1" style="">THE JOB MARKET DOES.</text></svg>