<svg xmlns="http://www.w3.org/2000/svg" width="55mm" height="55mm" viewBox="0 0 550 550"><defs>
<linearGradient id="holoA" x1="0%" y1="0%" x2="100%" y2="100%">
 <stop offset="0%" stop-color="#A78BFA"/><stop offset="35%" stop-color="#E879F9"/>
 <stop offset="70%" stop-color="#67E8F9"/><stop offset="100%" stop-color="#A78BFA"/></linearGradient>
<linearGradient id="holoB" x1="100%" y1="0%" x2="0%" y2="100%">
 <stop offset="0%" stop-color="#67E8F9"/><stop offset="40%" stop-color="#8B5CF6"/>
 <stop offset="75%" stop-color="#F472B6"/><stop offset="100%" stop-color="#E879F9"/></linearGradient>
<path id="arcTop" d="M 62 275 A 213 213 0 0 1 488 275" fill="none"/>
<path id="arcBot" d="M 38 275 A 237 237 0 0 0 512 275" fill="none"/>
<path id="bannerArc" d="M 110 389 Q 275 431 440 389" fill="none"/>
</defs><circle cx="275" cy="275" r="273" fill="#FFFFFF"/><circle cx="275" cy="275" r="260" fill="#080510"/><circle cx="275" cy="275" r="192" fill="url(#holoA)"/><path d="M 275 275 L 467.0 275.0 A 192 192 0 0 1 463.3 312.5 Z" fill="url(#holoB)" opacity="0.85"/><path d="M 275 275 L 452.4 348.5 A 192 192 0 0 1 434.6 381.7 Z" fill="url(#holoB)" opacity="0.85"/><path d="M 275 275 L 410.8 410.8 A 192 192 0 0 1 381.7 434.6 Z" fill="url(#holoB)" opacity="0.85"/><path d="M 275 275 L 348.5 452.4 A 192 192 0 0 1 312.5 463.3 Z" fill="url(#holoB)" opacity="0.85"/><path d="M 275 275 L 275.0 467.0 A 192 192 0 0 1 237.5 463.3 Z" fill="url(#holoB)" opacity="0.85"/><path d="M 275 275 L 201.5 452.4 A 192 192 0 0 1 168.3 434.6 Z" fill="url(#holoB)" opacity="0.85"/><path d="M 275 275 L 139.2 410.8 A 192 192 0 0 1 115.4 381.7 Z" fill="url(#holoB)" opacity="0.85"/><path d="M 275 275 L 97.6 348.5 A 192 192 0 0 1 86.7 312.5 Z" fill="url(#holoB)" opacity="0.85"/><path d="M 275 275 L 83.0 275.0 A 192 192 0 0 1 86.7 237.5 Z" fill="url(#holoB)" opacity="0.85"/><path d="M 275 275 L 97.6 201.5 A 192 192 0 0 1 115.4 168.3 Z" fill="url(#holoB)" opacity="0.85"/><path d="M 275 275 L 139.2 139.2 A 192 192 0 0 1 168.3 115.4 Z" fill="url(#holoB)" opacity="0.85"/><path d="M 275 275 L 201.5 97.6 A 192 192 0 0 1 237.5 86.7 Z" fill="url(#holoB)" opacity="0.85"/><path d="M 275 275 L 275.0 83.0 A 192 192 0 0 1 312.5 86.7 Z" fill="url(#holoB)" opacity="0.85"/><path d="M 275 275 L 348.5 97.6 A 192 192 0 0 1 381.7 115.4 Z" fill="url(#holoB)" opacity="0.85"/><path d="M 275 275 L 410.8 139.2 A 192 192 0 0 1 434.6 168.3 Z" fill="url(#holoB)" opacity="0.85"/><path d="M 275 275 L 452.4 201.5 A 192 192 0 0 1 463.3 237.5 Z" fill="url(#holoB)" opacity="0.85"/><circle cx="275" cy="275" r="192" fill="none" stroke="#FFFFFF" stroke-width="6"/><path d="M 195 235 Q 195 130 275 130 Q 355 130 355 235 Q 355 275 335 292 L 335 318 Q 335 332 320 332 L 230 332 Q 215 332 215 318 L 215 292 Q 195 275 195 235 Z" fill="#FFFFFF" stroke="#000000" stroke-width="7"/><ellipse cx="243" cy="240" rx="24" ry="28" fill="#000000"/><ellipse cx="307" cy="240" rx="24" ry="28" fill="#000000"/><circle cx="248" cy="247" r="7" fill="#8B5CF6"/><circle cx="302" cy="247" r="7" fill="#8B5CF6"/><path d="M 275 268 L 263 296 Q 275 304 287 296 Z" fill="#000000"/><rect x="238" y="332" width="16" height="24" rx="5" fill="#FFFFFF" stroke="#000000" stroke-width="6"/><rect x="258" y="332" width="16" height="24" rx="5" fill="#FFFFFF" stroke="#000000" stroke-width="6"/><rect x="278" y="332" width="16" height="24" rx="5" fill="#FFFFFF" stroke="#000000" stroke-width="6"/><rect x="298" y="332" width="16" height="24" rx="5" fill="#FFFFFF" stroke="#000000" stroke-width="6"/><path d="M 322 160 L 332 180 L 322 196" stroke="#000000" stroke-width="6" fill="none" stroke-linecap="round"/><path d="M 275 88 L 388 138 L 275 176 L 162 138 Z" fill="#000000" stroke="#000000" stroke-width="4"/><path d="M 214 155 L 214 190 Q 275 212 336 190 L 336 155" fill="#000000"/><circle cx="275" cy="132" r="8" fill="#8B5CF6"/><path d="M 275 132 Q 360 150 372 216" stroke="#8B5CF6" stroke-width="8" fill="none" stroke-linecap="round"/><circle cx="372" cy="228" r="14" fill="#8B5CF6"/><path d="M 112 352 L 82 396 L 112 392 L 120 424 L 162 386 Z" fill="#8B5CF6"/><path d="M 438 352 L 468 396 L 438 392 L 430 424 L 388 386 Z" fill="#8B5CF6"/><path d="M 122 356 Q 275 396 428 356 L 428 402 Q 275 442 122 402 Z" fill="#000000" stroke="#FFFFFF" stroke-width="5"/><text font-family="Arial, sans-serif" font-size="25" font-weight="900" fill="#FFFFFF" letter-spacing="1"><textPath href="#bannerArc" startOffset="50%" text-anchor="middle">CLASS OF NO REPLIES</textPath></text><text font-family="Arial, sans-serif" font-size="31" font-weight="900" fill="#FFFFFF" letter-spacing="4"><textPath href="#arcTop" startOffset="50%" text-anchor="middle">AS RARE AS A REPLY FROM HR</textPath></text><text font-family="Arial, sans-serif" font-size="30" font-weight="bold" fill="#A78BFA" letter-spacing="3"><textPath href="#arcBot" startOffset="50%" text-anchor="middle">•  candidai.tech  •</textPath></text></svg>